<svg width="61" height="56" viewBox="0 0 61 56" fill="none" xmlns="http://www.w3.org/2000/svg">
<path d="M26.7595 32.2348C24.5462 15.7769 27.8945 3.09581 27.8945 1.30526C27.8945 -0.48529 24.3464 5.50226 22.1663 8.58061C12.5742 22.1254 3.26436 41.5988 1.16456 46.0255C-0.51529 49.5668 1.18347 50.6413 2.24282 50.7358C20.3466 43.3581 26.7595 36.4912 26.7595 32.2348Z" fill="#E54086"/>
<path d="M33.6219 33.0071C48.9816 39.3194 58.2896 48.5596 59.8402 49.4549C61.3909 50.3502 57.9796 44.2836 56.4037 40.8565C49.4696 25.7771 37.26 7.97779 34.4764 3.946C32.2494 0.720559 30.4695 1.65448 29.8579 2.52461C27.1953 21.8918 29.9358 30.879 33.6219 33.0071Z" fill="#E54086"/>
<path d="M29.4023 38.5654C16.2559 48.7111 3.5996 52.1519 2.04894 53.0472C0.498277 53.9425 7.45771 54.0214 11.2136 54.3702C27.7399 55.9048 49.2593 54.2307 54.1427 53.8359C58.0495 53.52 58.1307 51.5116 57.6829 50.5469C42.2418 38.5574 33.0884 36.4372 29.4023 38.5654Z" fill="#E54086"/>
</svg>
